<svg width="24" height="24" viewBox="0 0 24 24" fill="none" xmlns="http://www.w3.org/2000/svg">
<path d="M20.3303 4.59125C18.7767 3.84787 17.1156 3.30762 15.3789 3C15.1656 3.39436 14.9164 3.92479 14.7446 4.34674C12.8985 4.0628 11.0693 4.0628 9.25716 4.34674C9.08539 3.92479 8.83055 3.39436 8.61536 3C6.87681 3.30762 5.21376 3.84986 3.66019 4.59518C0.526643 9.43786 -0.322811 14.1603 0.101917 18.8156C2.18025 20.4029 4.19441 21.3671 6.17457 21.998C6.66349 21.3099 7.09953 20.5784 7.47518 19.8074C6.75975 19.5294 6.07453 19.1863 5.42707 18.788C5.59884 18.6579 5.76686 18.5218 5.92918 18.3818C9.87819 20.2708 14.1689 20.2708 18.0707 18.3818C18.235 18.5218 18.403 18.6579 18.5728 18.788C17.9235 19.1883 17.2364 19.5313 16.521 19.8094C16.8966 20.5784 17.3308 21.3119 17.8216 22C19.8036 21.369 21.8197 20.4049 23.898 18.8156C24.3964 13.4189 23.0467 8.73984 20.3303 4.59125ZM8.01318 15.9526C6.82772 15.9526 5.85555 14.8208 5.85555 13.4425C5.85555 12.0643 6.80696 10.9305 8.01318 10.9305C9.21942 10.9305 10.1916 12.0623 10.1708 13.4425C10.1727 14.8208 9.21942 15.9526 8.01318 15.9526ZM15.9867 15.9526C14.8013 15.9526 13.8291 14.8208 13.8291 13.4425C13.8291 12.0643 14.7805 10.9305 15.9867 10.9305C17.193 10.9305 18.1651 12.0623 18.1444 13.4425C18.1444 14.8208 17.193 15.9526 15.9867 15.9526Z" fill="white"/>
</svg>
