<svg width="24" height="24" viewBox="0 0 24 24" fill="none" xmlns="http://www.w3.org/2000/svg">
<g clip-path="url(#clip0_3429_7043)">
<path d="M20.1543 20.3565C20.6315 20.3537 21.0103 20.7595 21.0117 21.2227V23.3887C21.0109 23.852 20.6311 24.2577 20.1543 24.2549H3.84766C3.4488 24.2548 3.1141 23.9777 3.01953 23.6055C2.966 23.5516 2.99049 21.3427 2.98926 21.2227C2.99015 20.7594 3.3708 20.3536 3.84766 20.3565H20.1543ZM2.14746 21.0069C2.11754 21.3096 2.11746 23.302 2.14746 23.6045H1.27246C-0.423982 23.5572 -0.42429 21.0543 1.27246 21.0069H2.14746ZM22.7275 21.0069C24.4241 21.0541 24.4242 23.5571 22.7275 23.6045H21.8525C21.8653 23.5354 21.8691 23.462 21.8691 23.3887V21.2227C21.8691 21.1493 21.8653 21.0759 21.8525 21.0069H22.7275ZM20.1533 7.44435C19.3449 7.12735 18.4194 7.79151 18.4365 8.66603C18.4363 9.86116 17.4752 10.8311 16.291 10.8311C14.5947 10.8784 14.5944 13.3821 16.291 13.4297C17.4753 13.4297 18.4364 14.3995 18.4365 15.5947C18.42 16.4701 19.3441 17.1324 20.1533 16.8164V19.4932H3.84668V4.76759H20.1533V7.44435ZM12.4297 13.4297C12.4188 12.8597 11.5817 12.8621 11.5713 13.4297C11.5712 14.3867 10.8028 15.1621 9.85449 15.1621C9.28993 15.1732 9.29228 16.0177 9.85449 16.0283C10.8028 16.0283 11.5713 16.8036 11.5713 17.7608C11.5825 18.3303 12.419 18.3279 12.4297 17.7608C12.4297 16.8037 13.1973 16.0284 14.1455 16.0283C14.7102 16.0174 14.7079 15.1726 14.1455 15.1621C13.1973 15.162 12.4298 14.3867 12.4297 13.4297ZM12 14.8594C12.8861 16.0361 12.8872 15.146 12 16.3233C11.114 15.1467 11.1129 16.0362 12 14.8594ZM19.2949 8.6631C19.3059 8.0924 20.1432 8.09638 20.1533 8.6631C20.1534 10.3348 21.5009 11.6944 23.1572 11.6944C23.3932 11.6944 23.5859 11.8898 23.5859 12.1279C23.5858 12.366 23.3931 12.5605 23.1572 12.5606C21.5009 12.5606 20.1533 13.9211 20.1533 15.5928C20.142 16.163 19.3054 16.159 19.2949 15.5928C19.2949 13.9211 17.9473 12.5606 16.291 12.5606C15.7262 12.5491 15.7301 11.705 16.291 11.6944C17.9474 11.6944 19.2949 10.3348 19.2949 8.6631ZM8.9961 6.50002C8.98506 5.93024 8.14823 5.93261 8.1377 6.50002C8.1377 7.45708 7.37014 8.23237 6.42188 8.23244C5.85713 8.24342 5.8595 9.08815 6.42188 9.09865C7.37015 9.09872 8.1377 9.87398 8.1377 10.8311C8.13772 11.0692 8.3314 11.2637 8.56738 11.2637C8.80333 11.2636 8.99607 11.0692 8.9961 10.8311C8.9961 9.87394 9.76457 9.09865 10.7129 9.09865C11.2775 9.08758 11.2752 8.243 10.7129 8.23244C9.76455 8.23244 8.9961 7.4571 8.9961 6.50002ZM8.56641 7.92873C9.45254 9.10547 9.45363 8.21531 8.56641 9.39259C7.68035 8.21605 7.67934 9.10547 8.56641 7.92873ZM20.1543 1.5159e-05C20.6316 -0.00279639 21.0105 0.402881 21.0117 0.866226V3.03127C21.011 3.49466 20.6312 3.90026 20.1543 3.89748H3.84766C3.44866 3.8974 3.11396 3.62046 3.01953 3.24806C2.96612 3.1918 2.99049 0.986317 2.98926 0.866226C2.98994 0.402766 3.37067 -0.00285587 3.84766 1.5159e-05H20.1543ZM2.14746 0.649429C2.11748 0.950696 2.1174 2.94675 2.14746 3.24806H1.27246C-0.423999 3.2008 -0.42431 0.696877 1.27246 0.649429H2.14746ZM22.7275 0.649429C24.424 0.69665 24.4243 3.20061 22.7275 3.24806H21.8525C21.8825 2.94654 21.8826 0.950511 21.8525 0.649429H22.7275Z" fill="white"/>
</g>
<defs>
<clipPath id="clip0_3429_7043">
<rect width="24" height="24" fill="white"/>
</clipPath>
</defs>
</svg>
