<svg width="24" height="24" viewBox="0 0 24 24" fill="none" xmlns="http://www.w3.org/2000/svg">
<g clip-path="url(#clip0_3429_6993)">
<path d="M22.9058 9.49202L21.3869 9.24002C21.2621 9.21842 21.1589 9.13202 21.1205 9.01201C20.955 8.50323 20.7438 8.00642 20.4967 7.53361C20.4367 7.41841 20.4463 7.28401 20.5207 7.17843L21.3893 5.96164C21.7612 5.44084 21.7036 4.73523 21.2501 4.28162L19.5201 2.55362C19.069 2.1024 18.3611 2.04483 17.8428 2.41442L16.5519 3.33842C16.4511 3.41042 16.3191 3.42242 16.2088 3.36962C15.8128 3.17522 15.4025 3.00961 14.9874 2.87521C14.8674 2.83681 14.781 2.73361 14.7618 2.60881L14.5099 1.09201C14.3995 0.458405 13.8596 0 13.2189 0H10.7762C10.1356 0 9.59567 0.458405 9.4901 1.08961L9.23815 2.60881C9.21656 2.73361 9.13257 2.83681 9.015 2.87521C8.55189 3.02641 8.09598 3.21602 7.65686 3.4392C7.54648 3.4944 7.41451 3.4848 7.31133 3.4104L6.05879 2.51518C5.5381 2.1432 4.83263 2.2008 4.37911 2.65438L2.64906 4.38478C2.19553 4.83839 2.13795 5.54397 2.50989 6.0648L3.40492 7.31759C3.4793 7.42079 3.4913 7.55279 3.43371 7.66319C3.21056 8.1024 3.02098 8.55841 2.86984 9.0216C2.83144 9.1392 2.73067 9.2232 2.60589 9.2448L1.08699 9.4968C0.458313 9.5976 0 10.1376 0 10.7784V13.224C0 13.8648 0.458312 14.4048 1.08939 14.5104L2.60828 14.7624C2.73306 14.784 2.83624 14.8704 2.87463 14.9904C3.009 15.4056 3.17697 15.8184 3.36894 16.212C3.42173 16.3224 3.40973 16.4544 3.33775 16.5552L2.41394 17.8464C2.04202 18.3672 2.10201 19.0728 2.55311 19.524L4.28076 21.2544C4.73189 21.708 5.43972 21.7656 5.96044 21.3936L7.17699 20.5248C7.28257 20.448 7.41934 20.4408 7.5321 20.5008C8.00482 20.7504 8.50149 20.9592 9.01021 21.1248C9.13018 21.1632 9.21656 21.2664 9.23816 21.3912L9.49011 22.9104C9.59569 23.5416 10.1356 24 10.7763 24H13.2214C13.862 24 14.4019 23.5416 14.5075 22.9104L14.7594 21.3912C14.781 21.2664 14.865 21.1632 14.9826 21.1248C15.4481 20.9736 15.904 20.784 16.3407 20.5632C16.4511 20.508 16.5831 20.52 16.6863 20.592L17.9388 21.4872C18.4595 21.8592 19.165 21.8016 19.6185 21.348L21.3485 19.6176C21.8021 19.164 21.8597 18.4584 21.4877 17.9376L20.5927 16.6848C20.5183 16.5816 20.5063 16.4496 20.5639 16.3392C20.7846 15.9024 20.9742 15.4464 21.1254 14.9808C21.1638 14.8632 21.2645 14.7792 21.3917 14.7576L22.9106 14.5056C23.5417 14.4 24 13.86 24 13.2192V10.7784C23.9952 10.1376 23.5369 9.5976 22.9058 9.49202ZM17.7228 15.8978C17.3773 16.3202 16.8686 16.5601 16.3263 16.5601C15.6376 16.5601 15.0186 16.1785 14.7114 15.5617L13.7684 13.6801H10.2268L9.28618 15.5617C8.97905 16.1785 8.35758 16.5601 7.66891 16.5601C7.12663 16.5601 6.61552 16.3201 6.27239 15.8978C5.92925 15.4754 5.79248 14.9306 5.89804 14.3978L6.74028 10.1907C6.89145 9.43223 7.56332 8.88026 8.33835 8.88026H11.2778V7.20024C11.2778 6.80183 11.5993 6.48022 11.9976 6.48022C12.396 6.48022 12.7175 6.80183 12.7175 7.20024V8.88026H15.6569C16.432 8.88026 17.1038 9.43226 17.2574 10.193L18.0996 14.4002C18.2028 14.9306 18.066 15.4778 17.7228 15.8978Z" fill="white"/>
</g>
<defs>
<clipPath id="clip0_3429_6993">
<rect width="24" height="24" fill="white"/>
</clipPath>
</defs>
</svg>
