<svg width="24" height="24" viewBox="0 0 24 24" fill="none" xmlns="http://www.w3.org/2000/svg">
<g clip-path="url(#clip0_3429_7060)">
<path d="M6.4896 1.66403C6.08436 1.3578 6.00169 0.777712 6.30592 0.369798C6.61015 -0.0381154 7.18643 -0.121331 7.59167 0.184907L9.6856 1.76225C11.1057 1.05505 12.7726 1.05505 14.1926 1.76225L16.2866 0.184907C16.4806 0.0381513 16.7262 -0.0254068 16.9673 0.00926103C17.2084 0.0439288 17.4254 0.173352 17.5723 0.369813C17.8765 0.777727 17.7939 1.35781 17.3886 1.66405L15.7355 2.89705C16.1167 3.31304 16.4312 3.78683 16.6654 4.30222H7.21288C7.44822 3.79145 7.76277 3.32115 8.14276 2.90862L6.4896 1.66403ZM22.8863 19.9682C22.5959 19.0854 21.7774 18.4903 20.8532 18.4891H19.2862C19.4883 17.7877 19.5916 17.062 19.5928 16.3317V15.4072H22.9598C23.4672 15.4072 23.8782 14.9935 23.8782 14.4827C23.8782 13.9731 23.4672 13.5583 22.9598 13.5583H19.5928V10.4764H20.8177L20.8165 10.4775C21.7406 10.4764 22.5592 9.88012 22.8496 8.99841L23.7921 6.15109C23.9333 5.67383 23.6739 5.17117 23.2066 5.01169C22.7382 4.85337 22.2297 5.09489 22.054 5.55944L21.1116 8.41948L21.1104 8.41832C21.0656 8.54312 20.9485 8.62632 20.8165 8.62863H19.5916L19.5928 8.32009C19.5859 7.13102 18.6308 6.16959 17.4495 6.16263H12.8575V11.2656C14.1226 11.7163 14.8814 13.0186 14.6541 14.3499C14.428 15.6811 13.2811 16.6541 11.9391 16.6541C10.5971 16.6541 9.45026 15.6811 9.22411 14.3499C8.99681 13.0187 9.75563 11.7164 11.0207 11.2656V6.16263H6.42876C5.24749 6.16957 4.29237 7.13099 4.28546 8.32009V8.62863H3.06055H3.0617C2.92968 8.62632 2.81258 8.54312 2.76781 8.41832L1.78744 5.55943C1.6118 5.0949 1.10324 4.85339 0.634851 5.01168C0.167632 5.17115 -0.091839 5.67383 0.0493728 6.15109L0.991862 8.99841C1.2823 9.88011 2.10081 10.4764 3.02496 10.4775H4.24987V13.5594L0.918391 13.5583C0.410969 13.5583 0 13.9731 0 14.4827C0 14.9935 0.410969 15.4072 0.918391 15.4072H4.28543V16.3317C4.28658 17.062 4.3899 17.7877 4.59196 18.4891H3.02496C2.10084 18.4903 1.28231 19.0854 0.991862 19.9682L0.0493728 22.8156C-0.112493 23.2986 0.144656 23.8232 0.624506 23.9861C0.722085 24.0046 0.820812 24.0046 0.918391 23.9861C1.31214 23.9861 1.66227 23.7331 1.78741 23.3575L2.7299 20.4975L2.73105 20.4986C2.77582 20.3738 2.89291 20.2906 3.02493 20.2883H5.47358C6.85575 22.5879 9.33082 23.992 11.9999 23.992C14.6701 23.992 17.1452 22.588 18.5274 20.2883H20.976C21.108 20.2906 21.224 20.3738 21.2699 20.4986L22.2124 23.3587V23.3575C22.3387 23.7331 22.6888 23.9861 23.0826 23.9861C23.179 24.0046 23.2789 24.0046 23.3764 23.9861C23.8563 23.8232 24.1135 23.2986 23.9516 22.8156L22.8863 19.9682ZM11.0207 13.8668C11.0207 14.2412 11.2446 14.5775 11.5878 14.7208C11.9311 14.8641 12.326 14.7843 12.5889 14.5209C12.8506 14.2563 12.9298 13.8587 12.7875 13.5132C12.6451 13.1677 12.311 12.9424 11.9391 12.9424C11.4352 12.9493 11.0276 13.3596 11.0207 13.8668Z" fill="white"/>
</g>
<defs>
<clipPath id="clip0_3429_7060">
<rect width="24" height="24" fill="white"/>
</clipPath>
</defs>
</svg>
