<svg width="24" height="24" viewBox="0 0 24 24" fill="none" xmlns="http://www.w3.org/2000/svg">
<path d="M19.326 17.9025C19.326 19.1873 15.7612 20.547 12.7283 20.547H11.2879C8.23064 20.5469 4.66682 19.2124 4.66682 17.9025V13.1818L11.4657 16.0734C11.7942 16.2218 12.1986 16.2218 12.5272 16.0734L19.326 13.1818V17.9025ZM11.4647 4.11148C11.8181 3.96283 12.1975 3.96285 12.5262 4.11148L23.4686 8.68374C24.1764 8.95498 24.1764 9.91864 23.4686 10.215L22.9891 10.4132L22.9881 15.2316C23.3425 15.4546 23.5691 15.8254 23.5692 16.2453V18.6916C23.5692 19.3584 23.0138 19.9023 22.3319 19.9025C21.6497 19.9025 21.0936 19.3586 21.0936 18.6916V16.2453C21.0937 15.8245 21.3213 15.4536 21.6746 15.2316V10.9318L12.5262 14.6632C12.1974 14.7868 11.8178 14.7868 11.4891 14.6632L0.521315 10.1906C-0.160873 9.91934 -0.186551 8.9547 0.521315 8.65835L11.4647 4.11148Z" fill="white"/>
</svg>
