<svg width="24" height="24" viewBox="0 0 24 24" fill="none" xmlns="http://www.w3.org/2000/svg">
<g clip-path="url(#clip0_3429_7032)">
<path d="M14.5427 23.7551C14.5551 23.8384 14.5774 23.9216 14.6048 24H5.95701V20.8164C5.95701 20.4099 5.6244 20.0817 5.21236 20.0817C4.80032 20.0817 4.46771 20.4099 4.46771 20.8164V24H0.248211C0.111694 24 0 23.8898 0 23.7551V19.3298C0 15.965 2.77748 13.2244 6.18803 13.2244H10.6236L10.3357 13.7142L10.0378 14.226C9.51409 15.1199 9.72754 16.2391 10.5442 16.8856L10.9959 17.2407C10.9934 17.2897 10.9934 17.3387 10.9934 17.3877C10.9934 17.4366 10.9934 17.4856 10.9959 17.5346L10.5442 17.8897C9.72756 18.5362 9.51409 19.6554 10.0378 20.5493L11.0505 22.2832C11.4253 22.9248 12.1252 23.3215 12.8749 23.3215C13.138 23.3215 13.3936 23.275 13.6393 23.1819L14.1755 22.9762C14.2623 23.0277 14.3517 23.0766 14.441 23.1256L14.5006 23.5101L14.5279 23.6889C14.5304 23.7109 14.5353 23.7331 14.5427 23.7551ZM10.1767 10.2856C13.051 10.2856 15.3891 7.97864 15.3891 5.1428C15.3891 2.30695 13.0509 0 10.1767 0C7.30254 0 4.96439 2.30695 4.96439 5.1428C4.96439 7.97864 7.30254 10.2856 10.1767 10.2856ZM23.9177 19.8145L22.905 21.5483C22.7908 21.7418 22.5848 21.852 22.3713 21.852C22.2969 21.852 22.2199 21.8398 22.1479 21.8104L21.1898 21.4455C21.1154 21.4161 21.0409 21.4014 20.964 21.4014C20.8399 21.4014 20.7182 21.4406 20.614 21.5116C20.3434 21.7051 20.0555 21.8716 19.7477 22.0087C19.5616 22.0895 19.435 22.2634 19.4027 22.4642L19.2463 23.4659C19.1992 23.7622 18.941 23.9801 18.6357 23.9801H16.6103C16.4192 23.9801 16.2455 23.8944 16.1313 23.7548C16.0742 23.6863 16.032 23.603 16.0122 23.5099C16.0047 23.4952 16.0022 23.4805 15.9997 23.4659L15.8434 22.4618C15.8111 22.2634 15.6845 22.0895 15.4984 22.0063C15.1931 21.8691 14.9027 21.7026 14.6321 21.5116C14.5279 21.4381 14.4062 21.4014 14.2846 21.4014C14.2076 21.4014 14.1307 21.4161 14.0587 21.443L13.0982 21.8104C13.0262 21.8398 12.9492 21.852 12.8748 21.852C12.6613 21.852 12.4553 21.7418 12.3411 21.5483L11.3284 19.8145C11.177 19.5549 11.2391 19.2243 11.4773 19.0357L12.279 18.4014C12.4379 18.2765 12.5248 18.0806 12.5049 17.8797C12.49 17.7181 12.4826 17.554 12.4826 17.3875C12.4826 17.221 12.49 17.0593 12.5074 16.8977C12.5273 16.6969 12.4379 16.501 12.279 16.3736L11.4773 15.7393C11.2391 15.5508 11.177 15.2202 11.3284 14.9606L12.0557 13.714L12.1996 13.4691L12.3411 13.2267C12.3411 13.2267 12.3411 13.2242 12.3436 13.2242C12.4578 13.0332 12.6613 12.923 12.8748 12.923C12.9492 12.923 13.0262 12.9352 13.0982 12.9646L13.7758 13.2242L14.0587 13.332C14.1307 13.3589 14.2077 13.3736 14.2846 13.3736C14.4062 13.3736 14.5279 13.3369 14.6321 13.2634C14.652 13.2511 14.6694 13.2365 14.6892 13.2242C14.9424 13.0503 15.2154 12.896 15.4984 12.7687C15.6845 12.6854 15.8111 12.5116 15.8434 12.3132L15.9998 11.3091C16.0469 11.0128 16.3051 10.7948 16.6104 10.7948H18.6358C18.9411 10.7948 19.1992 11.0128 19.2464 11.3091L19.4027 12.3108C19.435 12.5116 19.5616 12.6854 19.7478 12.7663C20.0555 12.9034 20.3435 13.0699 20.614 13.2634C20.7183 13.3344 20.8399 13.3736 20.964 13.3736C21.041 13.3736 21.1154 13.3589 21.1899 13.3295L22.148 12.9646C22.2199 12.9352 22.2969 12.923 22.3714 12.923C22.5848 12.923 22.7908 13.0332 22.905 13.2266L23.9177 14.9605C24.0691 15.2201 24.0071 15.5507 23.7688 15.7393L22.9671 16.3736C22.8082 16.5009 22.7189 16.6968 22.7387 16.8977C22.7561 17.0593 22.7635 17.2209 22.7635 17.3875C22.7635 17.554 22.7561 17.7181 22.7412 17.8797C22.7213 18.0805 22.8082 18.2764 22.9671 18.4014L23.7688 19.0356C24.0071 19.2242 24.0691 19.5548 23.9177 19.8145ZM19.708 17.3875C19.708 16.2536 18.7723 15.3304 17.6231 15.3304C17.561 15.3304 17.5014 15.3328 17.4419 15.3377C16.377 15.4283 15.5381 16.3149 15.5381 17.3875C15.5381 18.3279 16.1809 19.1214 17.0546 19.3663C17.2358 19.4177 17.427 19.4447 17.6231 19.4447C18.7723 19.4447 19.708 18.5214 19.708 17.3875Z" fill="white"/>
</g>
<defs>
<clipPath id="clip0_3429_7032">
<rect width="24" height="24" fill="white"/>
</clipPath>
</defs>
</svg>
