<svg width="24" height="24" viewBox="0 0 24 24" fill="none" xmlns="http://www.w3.org/2000/svg">
<path d="M5.15527 5.01562C5.5102 5.01562 5.79877 5.30329 5.79883 5.6582C5.79883 6.01316 5.51023 6.30078 5.15527 6.30078H3.87598L8.83398 17.8271L11.7158 12.2158L8.91211 6.30078H7.41602C7.06105 6.30078 6.77344 6.01317 6.77344 5.6582C6.7735 5.30329 7.06109 5.01562 7.41602 5.01562H11.2227C11.5775 5.01577 11.8652 5.30338 11.8652 5.6582C11.8652 6.01308 11.5775 6.30064 11.2227 6.30078H10.335L12.4561 10.7754L14.7422 6.3252H14.1865C13.8316 6.3252 13.544 6.03749 13.5439 5.68262C13.5439 5.32765 13.8316 5.04004 14.1865 5.04004H15.6426C15.7524 5.01073 15.8697 5.00765 15.9834 5.04004H17.4141C17.769 5.04004 18.0576 5.32765 18.0576 5.68262C18.0575 6.03749 17.769 6.3252 17.4141 6.3252H16.1885L13.1494 12.2393L15.7627 17.7539L20.5361 6.30078H19.959C19.604 6.30078 19.3164 6.01317 19.3164 5.6582C19.3165 5.30329 19.6041 5.01562 19.959 5.01562H23.043C23.3977 5.01582 23.6855 5.30341 23.6855 5.6582C23.6855 6.01305 23.3978 6.30058 23.043 6.30078H21.9287L16.3945 19.582C16.2969 19.8164 16.0702 19.9715 15.8164 19.9775C15.5627 19.9836 15.3294 19.8397 15.2207 19.6104L12.4092 13.6797L9.35449 19.6289C9.24082 19.8502 9.00936 19.986 8.76074 19.9775C8.51205 19.969 8.29071 19.8175 8.19238 19.5889L2.47559 6.30078H0.642578C0.287617 6.30078 0 6.01316 0 5.6582C5.86247e-05 5.30329 0.287654 5.01562 0.642578 5.01562H5.15527Z" fill="white"/>
</svg>
